<?xml version="1.0" standalone="no"?>
<!DOCTYPE svg PUBLIC "-//W3C//DTD SVG 20010904//EN"
 "http://www.w3.org/TR/2001/REC-SVG-20010904/DTD/svg10.dtd">
<svg version="1.0" xmlns="http://www.w3.org/2000/svg"
 width="1280.000000pt" height="1233.000000pt" viewBox="0 0 1280.000000 1233.000000"
 preserveAspectRatio="xMidYMid meet">
<metadata>
Created by potrace 1.15, written by Peter Selinger 2001-2017
</metadata>
<g transform="translate(0.000000,1233.000000) scale(0.100000,-0.100000)"
fill="#ffeb3b" stroke="none">
<path d="M6310 11443 c-16 -16 -58 -80 -94 -143 -35 -63 -103 -182 -150 -265
-94 -162 -262 -490 -346 -675 -81 -178 -564 -1227 -642 -1395 -114 -243 -226
-460 -279 -540 -75 -112 -181 -215 -265 -258 -121 -62 -387 -125 -939 -222
-82 -15 -222 -39 -310 -55 -88 -16 -263 -47 -390 -69 -1110 -196 -1285 -230
-1623 -312 -241 -58 -288 -76 -298 -115 -10 -39 12 -72 139 -210 99 -106 183
-206 262 -310 72 -95 309 -319 511 -481 21 -17 93 -76 160 -130 67 -54 207
-167 311 -251 105 -84 203 -164 219 -177 16 -13 85 -69 154 -125 69 -56 134
-109 145 -118 11 -9 68 -55 125 -102 58 -46 107 -87 110 -90 3 -3 34 -29 70
-59 100 -84 300 -290 345 -356 112 -166 158 -314 157 -505 0 -154 -23 -305
-108 -720 -36 -173 -69 -335 -74 -360 -5 -25 -36 -178 -70 -340 -137 -662
-213 -1043 -239 -1198 -45 -261 -90 -686 -78 -732 20 -80 68 -83 247 -17 69
25 179 62 245 83 66 20 161 52 210 71 85 33 436 204 462 225 7 5 52 31 100 57
48 27 120 66 158 88 65 37 488 274 690 386 50 28 126 70 170 95 514 287 696
371 915 424 80 19 308 16 395 -4 201 -49 324 -102 805 -350 354 -183 467 -242
535 -278 39 -21 137 -72 218 -114 82 -42 165 -86 185 -98 84 -47 492 -248 552
-271 119 -46 252 -85 423 -122 42 -9 123 -32 179 -51 179 -60 228 -43 228 82
0 184 -62 610 -176 1202 -58 303 -123 644 -180 939 -197 1033 -204 1073 -211
1263 -4 135 -3 151 21 233 26 88 96 240 116 252 6 4 14 15 18 25 14 37 186
223 292 315 88 77 366 313 398 338 20 15 39 31 42 35 3 4 28 25 55 46 28 22
55 44 60 50 6 6 33 29 60 50 28 22 58 47 67 55 9 9 23 21 30 26 29 23 124 101
138 115 9 8 33 29 54 45 21 17 44 35 50 40 6 6 36 30 66 55 30 25 57 47 60 50
3 3 30 25 60 50 58 47 105 88 151 130 15 14 59 52 98 84 78 67 282 273 351
355 78 94 215 244 353 386 68 71 81 94 75 136 -5 39 -58 55 -288 93 -442 72
-606 91 -2155 251 -711 73 -964 108 -1100 152 -176 56 -270 155 -431 453 -62
116 -428 852 -601 1210 -194 402 -489 989 -560 1115 -172 305 -299 519 -329
551 -38 41 -64 43 -104 7z"/>
</g>
</svg>
